<?xml version="1.0" encoding="UTF-8" standalone="no"?>
<!DOCTYPE svg PUBLIC "-//W3C//DTD SVG 1.1//EN" "http://www.w3.org/Graphics/SVG/1.1/DTD/svg11.dtd">
<svg version="1.1" xmlns="http://www.w3.org/2000/svg" xmlns:xlink="http://www.w3.org/1999/xlink" preserveAspectRatio="xMidYMid meet" viewBox="0 0 300 300" width="300" height="300"><defs><path d="M278.93 34.29C284.45 34.29 288.93 38.76 288.93 44.29C288.93 93.29 288.93 230.29 288.93 279.29C288.93 284.81 284.45 289.29 278.93 289.29C229.93 289.29 92.93 289.29 43.93 289.29C38.41 289.29 33.93 284.81 33.93 279.29C33.93 230.29 33.93 93.29 33.93 44.29C33.93 38.76 38.41 34.29 43.93 34.29C92.93 34.29 229.93 34.29 278.93 34.29Z" id="c1guJHVYi8"></path><path d="M266.86 50.71C271.75 50.71 275.71 54.68 275.71 59.57C275.71 102.94 275.71 224.2 275.71 267.58C275.71 272.47 271.75 276.43 266.86 276.43C223.49 276.43 102.22 276.43 58.85 276.43C53.96 276.43 50 272.47 50 267.58C50 224.2 50 102.94 50 59.57C50 54.68 53.96 50.71 58.85 50.71C102.22 50.71 223.49 50.71 266.86 50.71Z" id="cU4oFI2fm"></path><path d="M256.07 12.14C261.59 12.14 266.07 16.62 266.07 22.14C266.07 71.14 266.07 208.14 266.07 257.14C266.07 262.67 261.59 267.14 256.07 267.14C207.07 267.14 70.07 267.14 21.07 267.14C15.55 267.14 11.07 262.67 11.07 257.14C11.07 208.14 11.07 71.14 11.07 22.14C11.07 16.62 15.55 12.14 21.07 12.14C70.07 12.14 207.07 12.14 256.07 12.14Z" id="a2NYLJm8Lj"></path><linearGradient id="gradienta3KFJP23bF" gradientUnits="userSpaceOnUse" x1="138.57" y1="12.14" x2="138.57" y2="267.14"><stop style="stop-color: #f58a8a;stop-opacity: 1" offset="0%"></stop><stop style="stop-color: #6845ff;stop-opacity: 1" offset="100%"></stop></linearGradient><path d="M164.6 210.05L164.61 210.06L116.54 267.14L27.5 161.4L75.57 104.32L116.53 152.96L238.72 7.86L286.79 64.94L164.6 210.05Z" id="k5VrNU409a"></path><clipPath id="clipbJkqaKbm"><use xlink:href="#k5VrNU409a" opacity="1"></use></clipPath></defs><g><g><g><use xlink:href="#c1guJHVYi8" opacity="1" fill="#5a1eff" fill-opacity="1"></use></g><g><use xlink:href="#cU4oFI2fm" opacity="1" fill="#ffffff" fill-opacity="1"></use></g><g><use xlink:href="#a2NYLJm8Lj" opacity="1" fill="url(#gradienta3KFJP23bF)"></use></g><g><g><filter id="shadow13272622" x="16.5" y="-3.14" width="284.29" height="283.29" filterUnits="userSpaceOnUse" primitiveUnits="userSpaceOnUse"><feFlood></feFlood><feComposite in2="SourceAlpha" operator="in"></feComposite><feGaussianBlur stdDeviation="1"></feGaussianBlur><feOffset dx="3" dy="2" result="afterOffset"></feOffset><feFlood flood-color="#343434" flood-opacity="0.5"></feFlood><feComposite in2="afterOffset" operator="in"></feComposite><feMorphology operator="dilate" radius="1"></feMorphology><feComposite in2="SourceAlpha" operator="out"></feComposite></filter><path d="M164.6 210.05L164.61 210.06L116.54 267.14L27.5 161.4L75.57 104.32L116.53 152.96L238.72 7.86L286.79 64.94L164.6 210.05Z" id="a29rkyA0q" fill="white" fill-opacity="1" filter="url(#shadow13272622)"></path></g><g clip-path="url(#clipbJkqaKbm)"><use xlink:href="#k5VrNU409a" opacity="1" fill-opacity="0" stroke="#ffffff" stroke-width="16" stroke-opacity="1"></use></g></g></g></g></svg>